<?xml version="1.0" standalone="no"?><!DOCTYPE svg PUBLIC "-//W3C//DTD SVG 1.1//EN" "http://www.w3.org/Graphics/SVG/1.1/DTD/svg11.dtd"><svg t="1629803471900" class="icon" viewBox="0 0 1024 1024" version="1.1" xmlns="http://www.w3.org/2000/svg" p-id="2246" xmlns:xlink="http://www.w3.org/1999/xlink" width="38" height="38"><defs><style type="text/css"></style></defs><path d="M540.672 117.76l78.677333 159.744-32.682666 0.042667-4.266667 0.128-4.394667 0.298666-4.266666 0.426667-6.698667 1.152a96 96 0 0 0 9.813333 189.482667l6.698667 0.426666h-1.194667l-4.309333 0.298667-4.309333 0.426667-6.698667 1.152a96 96 0 0 0-76.117333 86.826666l-0.256 7.168 0.213333 6.570667a96 96 0 0 0 88.917333 89.173333l6.869334 0.256 10.666666 0.042667h-10.666666l-4.266667 0.170667-4.394667 0.298666-4.266666 0.426667-6.698667 1.152a96 96 0 0 0-76.117333 86.784l-0.256 7.210667 0.213333 6.570666c0.853333 11.904 3.797333 23.210667 8.533333 33.536l-216.746666 114.176a32 32 0 0 1-46.421334-33.706666l43.989334-255.402667-185.685334-180.736a32 32 0 0 1 17.749334-54.613333l256.426666-37.034667 114.517334-232.448a32 32 0 0 1 57.429333 0z m365.994667 607.658667a32 32 0 0 1 4.352 63.701333l-4.352 0.256h-320a32 32 0 0 1-4.352-63.701333l4.352-0.256h320z m0-192.085334a32 32 0 0 1 4.352 63.701334L906.666667 597.333333h-320a32 32 0 0 1-4.352-63.701333l4.352-0.298667h320z m0-191.786666a32 32 0 0 1 4.352 63.701333l-4.352 0.298667h-320a32 32 0 0 1-4.352-63.701334l4.352-0.298666h320z" p-id="2247"></path></svg>
